<svg width="1440" height="573" viewBox="0 0 1440 573" fill="none" xmlns="http://www.w3.org/2000/svg">
<g filter="url(#filter0_b_223_806)">
<path d="M1481.78 87.3548C1482.58 91.3587 1482.82 95.456 1482.47 99.5254L1441.69 584.353L672.944 584.18L35.9059 592.915C-22.1837 593.711 -68.7236 545.008 -65.2902 487.014L-58.9587 380.066L-41.0094 76.8816C-40.6102 70.1371 -38.3054 63.6442 -34.3628 58.1575C-16.5969 33.4333 21.9773 40.8622 29.2899 70.4162L41.7099 120.613C51.9424 161.968 112.004 157.89 116.552 115.531L122.942 56.0145C126.434 23.4893 172.909 21.2189 179.555 53.249L184.319 76.2133C189.544 101.399 225.484 101.485 230.83 76.3251C236.341 50.3921 273.752 51.5937 277.587 77.8268L291.327 171.809C294.846 195.881 327.99 199.705 336.898 177.066C344.983 156.52 374.285 157.178 381.439 178.066L410.401 262.63C420.822 293.06 454.474 308.702 484.456 297.053L489.102 295.248C494.476 293.16 499.529 290.325 504.112 286.828L524.637 271.165C537.058 261.686 554.295 261.73 566.667 271.272C584.594 285.098 610.752 278.219 619.558 257.363L654.707 174.11C672.582 131.774 733.343 134.086 747.95 177.657C750.64 185.682 755.328 192.89 761.572 198.603L774.239 210.193C797.51 231.484 834.603 225.182 849.537 197.399L858.985 179.821C873.166 153.437 910.989 153.388 925.24 179.734C926.698 182.431 928.481 184.939 930.548 187.203L980.588 242.019C991.771 254.269 1010.25 256.461 1023.99 247.167C1032.02 241.734 1037.29 233.079 1038.44 223.45L1054.04 92.6934C1058.07 58.908 1106.84 58.1966 1111.85 91.8501C1116.88 125.613 1165.87 124.741 1169.69 90.8201L1176.15 33.5403C1181.08 -10.1498 1244.68 -9.82048 1249.15 33.9183L1272.72 264.304C1277.12 289.336 1312.81 289.996 1318.13 265.143L1346.67 131.996C1349.04 120.915 1363.03 117.275 1370.51 125.793C1378.65 135.076 1393.95 129.787 1394.63 117.456L1397.97 56.5645C1400.45 11.2069 1465.56 6.53356 1474.5 51.0712L1481.78 87.3548Z" fill="url(#paint0_linear_223_806)"/>
</g>
<defs>
<filter id="filter0_b_223_806" x="-69.4688" y="-3.05664" width="1556.1" height="599.98" filterUnits="userSpaceOnUse" color-interpolation-filters="sRGB">
<feFlood flood-opacity="0" result="BackgroundImageFix"/>
<feGaussianBlur in="BackgroundImageFix" stdDeviation="2"/>
<feComposite in2="SourceAlpha" operator="in" result="effect1_backgroundBlur_223_806"/>
<feBlend mode="normal" in="SourceGraphic" in2="effect1_backgroundBlur_223_806" result="shape"/>
</filter>
<linearGradient id="paint0_linear_223_806" x1="1235.44" y1="607.254" x2="1364.49" y2="-261.893" gradientUnits="userSpaceOnUse">
<stop offset="0.0914186" stop-color="#360153"/>
<stop offset="0.334457" stop-color="#90588E"/>
<stop offset="0.54781" stop-color="#BD84AB"/>
<stop offset="0.791979" stop-color="#EAAFC8"/>
</linearGradient>
</defs>
</svg>
