<svg width="1440" height="421" viewBox="0 0 1440 421" fill="none" xmlns="http://www.w3.org/2000/svg">
<g filter="url(#filter0_b_209_348)">
<path d="M71.6776 283.079C58.8148 328.377 -8.09553 318.205 -6.9155 271.131L-0.167086 1.92059L712.928 1.04888L1101.17 0.574366L1327.24 0.29806L1340.45 0.489863C1395.11 1.28338 1439 45.8169 1439 100.479L1439 157.2C1439 162.133 1439.36 167.059 1440.09 171.938L1465.87 344.909C1466.62 349.948 1466.56 355.075 1465.7 360.097L1462.52 378.559C1453.88 428.842 1381.41 428.076 1373.83 377.622L1363.97 312.028C1360.19 286.855 1325.91 282.166 1315.51 305.4C1304.92 329.047 1269.9 323.652 1266.92 297.915L1265.51 285.679C1261.57 251.6 1212.07 251.612 1208.15 285.692L1198.42 370.076C1195.51 395.364 1158.86 395.586 1155.64 370.335L1133.97 275.84C1124.7 235.43 1068.11 232.875 1055.24 272.286L1042 312.825C1033.96 337.462 999.134 337.54 990.978 312.94C982.552 287.523 946.193 288.738 939.482 314.661L934.639 333.371C926.161 366.119 879.553 365.818 871.499 332.963L863.211 299.155C855.126 266.176 808.015 266.814 800.827 300.001L799.337 306.879C792.734 337.368 749.869 339.048 740.899 309.17C731.407 277.557 685.339 281.91 681.936 314.741L676.114 370.922L674.892 381.159C669.049 430.079 599.644 434.223 588.023 386.344C583.206 366.499 565.424 352.534 545.002 352.559L488.762 352.628C471.931 352.648 455.876 359.711 444.488 372.104C420.17 398.566 378.238 397.98 354.669 370.847L339.002 352.811L334.047 347.478C311.83 323.569 273.231 326.206 254.472 352.914L240.835 372.711C222.978 398.635 184.486 398.023 167.463 371.543L112.719 264.807C109.305 258.151 102.449 253.968 94.9688 253.977C86.0715 253.988 78.2602 259.898 75.8298 268.457L71.6776 283.079Z" fill="url(#paint0_linear_209_348)"/>
</g>
<defs>
<filter id="filter0_b_209_348" x="-10.9309" y="-3.70193" width="1481.32" height="427.837" filterUnits="userSpaceOnUse" color-interpolation-filters="sRGB">
<feFlood flood-opacity="0" result="BackgroundImageFix"/>
<feGaussianBlur in="BackgroundImageFix" stdDeviation="2"/>
<feComposite in2="SourceAlpha" operator="in" result="effect1_backgroundBlur_209_348"/>
<feBlend mode="normal" in="SourceGraphic" in2="effect1_backgroundBlur_209_348" result="shape"/>
</filter>
<linearGradient id="paint0_linear_209_348" x1="209.897" y1="146.013" x2="130.758" y2="1055.84" gradientUnits="userSpaceOnUse">
<stop offset="0.0914186" stop-color="#360153"/>
<stop offset="0.334457" stop-color="#90588E"/>
<stop offset="0.54781" stop-color="#BD84AB"/>
<stop offset="0.791979" stop-color="#EAAFC8"/>
</linearGradient>
</defs>
</svg>
